<svg xmlns="http://www.w3.org/2000/svg" viewBox="0 0 400 300" fill="none">
  <rect width="400" height="300" rx="16" fill="#EFF6FF"/>
  <rect x="60" y="50" width="280" height="200" rx="12" fill="white" stroke="#BFDBFE" stroke-width="2"/>
  <rect x="80" y="70" width="100" height="60" rx="8" fill="#DBEAFE"/>
  <rect x="90" y="80" width="30" height="40" rx="4" fill="#3B82F6"/>
  <rect x="125" y="90" width="30" height="30" rx="4" fill="#60A5FA"/>
  <rect x="80" y="145" width="100" height="12" rx="4" fill="#E2E8F0"/>
  <text x="82" y="180" font-family="sans-serif" font-size="10" fill="#64748B">Analytics</text>
  <rect x="200" y="70" width="120" height="80" rx="8" fill="#F0F9FF" stroke="#BFDBFE" stroke-width="1.5"/>
  <text x="215" y="95" font-family="sans-serif" font-size="11" fill="#3B82F6" font-weight="bold">+247%</text>
  <text x="215" y="112" font-family="sans-serif" font-size="9" fill="#94A3B8">visitors</text>
  <polyline points="210,135 225,125 240,130 255,115 270,118 285,105 300,108" stroke="#3B82F6" stroke-width="2" fill="none" stroke-linecap="round"/>
  <rect x="200" y="165" width="120" height="40" rx="8" fill="#ECFDF5" stroke="#A7F3D0" stroke-width="1.5"/>
  <text x="215" y="185" font-family="sans-serif" font-size="10" fill="#059669" font-weight="bold">99.9% uptime</text>
  <text x="215" y="197" font-family="sans-serif" font-size="8" fill="#6EE7B7">All systems go</text>
  <circle cx="320" cy="230" r="22" fill="#3B82F6"/>
  <path d="M315 235 L320 220 L325 235 Z" fill="white"/>
  <rect x="317" y="226" width="6" height="10" rx="2" fill="white"/>
</svg>
