<svg xmlns="http://www.w3.org/2000/svg" viewBox="0 0 400 300" fill="none">
  <rect width="400" height="300" rx="16" fill="#EFF6FF"/>
  <rect x="60" y="40" width="280" height="220" rx="12" fill="white" stroke="#BFDBFE" stroke-width="2"/>
  <rect x="60" y="40" width="280" height="35" rx="12" fill="#F8FAFC"/>
  <circle cx="82" cy="57" r="5" fill="#F87171"/>
  <circle cx="97" cy="57" r="5" fill="#FBBF24"/>
  <circle cx="112" cy="57" r="5" fill="#34D399"/>
  <rect x="80" y="95" width="100" height="80" rx="8" fill="#DBEAFE" stroke="#93C5FD" stroke-width="1.5"/>
  <rect x="90" y="105" width="80" height="8" rx="4" fill="#93C5FD"/>
  <rect x="90" y="120" width="60" height="6" rx="3" fill="#BFDBFE"/>
  <rect x="90" y="133" width="70" height="6" rx="3" fill="#BFDBFE"/>
  <rect x="90" y="150" width="40" height="18" rx="4" fill="#3B82F6"/>
  <rect x="200" y="95" width="120" height="60" rx="8" fill="#EFF6FF" stroke="#BFDBFE" stroke-width="1.5"/>
  <rect x="200" y="165" width="120" height="60" rx="8" fill="#EFF6FF" stroke="#BFDBFE" stroke-width="1.5"/>
  <circle cx="240" cy="125" r="12" fill="#BFDBFE"/>
  <rect x="260" y="110" width="45" height="6" rx="3" fill="#CBD5E1"/>
  <rect x="260" y="122" width="35" height="6" rx="3" fill="#CBD5E1"/>
  <circle cx="240" cy="195" r="12" fill="#BFDBFE"/>
  <rect x="260" y="182" width="45" height="6" rx="3" fill="#CBD5E1"/>
  <rect x="260" y="194" width="35" height="6" rx="3" fill="#CBD5E1"/>
</svg>
